<svg width="512" height="512" viewBox="0 0 512 512" fill="none" xmlns="http://www.w3.org/2000/svg">
<rect width="512" height="512" fill="#F9F5F0"/>
<path d="M163.6 385.4C164.8 383 165.6 380.7 166 378.5C166.4 376.3 166.6 373.7 166.6 370.7C166.6 367.7 166.6 362.1 166.6 353.9C166.6 345.7 166.6 335.9 166.6 324.5C166.6 313.1 166.6 301.2 166.6 288.8C166.6 276.2 166.6 264 166.6 252.2C166.6 240.2 166.6 229.6 166.6 220.4C166.6 211 166.6 203.9 166.6 199.1C166.6 196.5 166.4 193.4 166 189.8C165.8 186.2 165.5 182.8 165.1 179.6C164.9 176.4 164.5 173.8 163.9 171.8H193.6C193 175.4 192.5 179.8 192.1 185C191.7 190 191.5 194.7 191.5 199.1C191.5 203.1 191.5 208.9 191.5 216.5C191.5 224.1 191.5 232.8 191.5 242.6C191.5 252.2 191.5 262.4 191.5 273.2C191.5 284 191.5 294.6 191.5 305C191.5 315.4 191.5 325.1 191.5 334.1C191.5 342.9 191.5 350.4 191.5 356.6C191.5 362.8 191.5 367 191.5 369.2C205.9 365.6 220.7 360.5 235.9 353.9C251.3 347.3 266.3 339.6 280.9 330.8C295.7 321.8 309.5 312 322.3 301.4C335.3 290.6 346.4 279.1 355.6 266.9L369.1 287.9C349.7 312.1 324.9 333.3 294.7 351.5C264.7 369.7 231 384.2 193.6 395C192 395.4 190.1 396 187.9 396.8C185.7 397.8 183.4 399 181 400.4L163.6 385.4Z" fill="#C04747"/>
</svg>
